<svg width="24" height="25" viewBox="0 0 24 25" fill="none" xmlns="http://www.w3.org/2000/svg">
<path fill-rule="evenodd" clip-rule="evenodd" d="M11.999 7.5C11.999 6.94772 12.4467 6.5 12.999 6.5H18.999C19.5513 6.5 19.999 6.94772 19.999 7.5C19.999 8.05228 19.5513 8.5 18.999 8.5H12.999C12.4467 8.5 11.999 8.05228 11.999 7.5ZM3.99951 17.5C3.99951 16.9477 4.44723 16.5 4.99951 16.5H10.9995C11.5518 16.5 11.9995 16.9477 11.9995 17.5C11.9995 18.0523 11.5518 18.5 10.9995 18.5H4.99951C4.44723 18.5 3.99951 18.0523 3.99951 17.5ZM19.9995 12.5C19.9995 11.9477 19.5518 11.5 18.9995 11.5H4.99951C4.44723 11.5 3.99951 11.9477 3.99951 12.5C3.99951 13.0523 4.44723 13.5 4.99951 13.5H18.9995C19.5518 13.5 19.9995 13.0523 19.9995 12.5Z" fill="#202224"/>
<path d="M18.999 6.5V6.25H12.999V6.5V6.75H18.999V6.5ZM12.999 8.5V8.75H18.999V8.5V8.25H12.999V8.5ZM10.9995 16.5V16.25H4.99951V16.5V16.75H10.9995V16.5ZM4.99951 18.5V18.75H10.9995V18.5V18.25H4.99951V18.5ZM4.99951 11.5V11.75H18.9995V11.5V11.25H4.99951V11.5ZM18.9995 13.5V13.25H4.99951V13.5V13.75H18.9995V13.5ZM18.9995 13.5V13.75C19.6899 13.75 20.2495 13.1904 20.2495 12.5H19.9995H19.7495C19.7495 12.9142 19.4137 13.25 18.9995 13.25V13.5ZM3.99951 12.5H3.74951C3.74951 13.1904 4.30916 13.75 4.99951 13.75V13.5V13.25C4.5853 13.25 4.24951 12.9142 4.24951 12.5H3.99951ZM18.9995 11.5V11.75C19.4137 11.75 19.7495 12.0858 19.7495 12.5H19.9995H20.2495C20.2495 11.8096 19.6899 11.25 18.9995 11.25V11.5ZM4.99951 11.5V11.25C4.30916 11.25 3.74951 11.8096 3.74951 12.5H3.99951H4.24951C4.24951 12.0858 4.5853 11.75 4.99951 11.75V11.5ZM4.99951 18.5V18.25C4.5853 18.25 4.24951 17.9142 4.24951 17.5H3.99951H3.74951C3.74951 18.1904 4.30916 18.75 4.99951 18.75V18.5ZM11.9995 17.5H11.7495C11.7495 17.9142 11.4137 18.25 10.9995 18.25V18.5V18.75C11.6899 18.75 12.2495 18.1904 12.2495 17.5H11.9995ZM4.99951 16.5V16.25C4.30916 16.25 3.74951 16.8096 3.74951 17.5H3.99951H4.24951C4.24951 17.0858 4.5853 16.75 4.99951 16.75V16.5ZM10.9995 16.5V16.75C11.4137 16.75 11.7495 17.0858 11.7495 17.5H11.9995H12.2495C12.2495 16.8096 11.6899 16.25 10.9995 16.25V16.5ZM12.999 8.5V8.25C12.5848 8.25 12.249 7.91421 12.249 7.5H11.999H11.749C11.749 8.19036 12.3087 8.75 12.999 8.75V8.5ZM19.999 7.5H19.749C19.749 7.91421 19.4132 8.25 18.999 8.25V8.5V8.75C19.6894 8.75 20.249 8.19036 20.249 7.5H19.999ZM12.999 6.5V6.25C12.3087 6.25 11.749 6.80964 11.749 7.5H11.999H12.249C12.249 7.08579 12.5848 6.75 12.999 6.75V6.5ZM18.999 6.5V6.75C19.4132 6.75 19.749 7.08579 19.749 7.5H19.999H20.249C20.249 6.80964 19.6894 6.25 18.999 6.25V6.5Z" fill="white"/>
</svg>
