<svg width="24" height="24" viewBox="0 0 24 24" fill="none" xmlns="http://www.w3.org/2000/svg">
<rect opacity="0.01" width="24" height="24" fill="#A9A9A9"/>
<path fill-rule="evenodd" clip-rule="evenodd" d="M15.3 2.32994L19.74 7.32994C19.9067 7.51333 19.9994 7.7521 20 7.99994V19.4999C19.9921 20.1709 19.7179 20.8113 19.2378 21.2802C18.7577 21.749 18.111 22.0079 17.44 21.9999H6.56C5.88899 22.0079 5.24229 21.749 4.76218 21.2802C4.28208 20.8113 4.00791 20.1709 4 19.4999V4.49994C4.00791 3.82892 4.28208 3.18854 4.76218 2.71969C5.24229 2.25084 5.88899 1.99193 6.56 1.99994H14.56C14.8422 2.0006 15.1109 2.12046 15.3 2.32994ZM12 11.9999H9C8.44772 11.9999 8 12.4477 8 12.9999C8 13.5522 8.44772 13.9999 9 13.9999H12C12.5523 13.9999 13 13.5522 13 12.9999C13 12.4477 12.5523 11.9999 12 11.9999ZM9 17.9999C8.44772 17.9999 8 17.5522 8 16.9999C8 16.4477 8.44772 15.9999 9 15.9999H15C15.5523 15.9999 16 16.4477 16 16.9999C16 17.5522 15.5523 17.9999 15 17.9999H9ZM14 7.14994C13.9652 7.5795 14.2811 7.9577 14.71 7.99994H17.74L14 3.99994V7.14994Z" fill="#A9A9A9"/>
</svg>
