<svg width="32" height="32" viewBox="0 0 32 32" fill="none" xmlns="http://www.w3.org/2000/svg">
<rect opacity="0.01" width="32" height="32" fill="black"/>
<path fill-rule="evenodd" clip-rule="evenodd" d="M6.66602 6.66406H25.3327C27.5418 6.66406 29.3327 8.45492 29.3327 10.6641V21.3307C29.3327 23.5399 27.5418 25.3307 25.3327 25.3307H6.66602C4.45688 25.3307 2.66602 23.5399 2.66602 21.3307V10.6641C2.66602 8.45492 4.45688 6.66406 6.66602 6.66406ZM9.33268 19.9974H14.666C15.4024 19.9974 15.9993 19.4004 15.9993 18.6641C15.9993 17.9277 15.4024 17.3307 14.666 17.3307H9.33268C8.5963 17.3307 7.99935 17.9277 7.99935 18.6641C7.99935 19.4004 8.5963 19.9974 9.33268 19.9974ZM22.666 19.9974H19.9993C19.263 19.9974 18.666 19.4004 18.666 18.6641C18.666 17.9277 19.263 17.3307 19.9993 17.3307H22.666C23.4024 17.3307 23.9993 17.9277 23.9993 18.6641C23.9993 19.4004 23.4024 19.9974 22.666 19.9974ZM5.33268 11.9974H26.666V10.6641C26.666 9.92768 26.0691 9.33073 25.3327 9.33073H6.66602C5.92964 9.33073 5.33268 9.92768 5.33268 10.6641V11.9974Z" fill="#FF9066"/>
</svg>
