<svg width="24" height="24" viewBox="0 0 24 24" fill="none" xmlns="http://www.w3.org/2000/svg">
<rect opacity="0.01" width="24" height="24" fill="black"/>
<path fill-rule="evenodd" clip-rule="evenodd" d="M6.37754 3.69206C10.3568 1.00339 15.6854 1.52307 19.0702 4.92993L19.1202 4.94993C22.527 8.33469 23.0467 13.6633 20.358 17.6425C17.6694 21.6218 12.5316 23.1278 8.12016 21.2299C7.91828 21.1448 7.69769 21.1138 7.48016 21.1399L3.20016 21.9999H3.00016C2.72746 22.0069 2.46375 21.9021 2.27016 21.7099C2.03276 21.4714 1.93129 21.1294 2.00016 20.7999L2.88016 16.5699C2.91751 16.3524 2.88605 16.1287 2.79016 15.9299C0.892251 11.5184 2.39831 6.38073 6.37754 3.69206ZM7.00016 11.9999C7.00016 12.5522 7.44787 12.9999 8.00016 12.9999C8.55244 12.9999 9.00016 12.5522 9.00016 11.9999C9.00016 11.4476 8.55244 10.9999 8.00016 10.9999C7.44787 10.9999 7.00016 11.4476 7.00016 11.9999ZM12.0002 12.9999C11.4479 12.9999 11.0002 12.5522 11.0002 11.9999C11.0002 11.4476 11.4479 10.9999 12.0002 10.9999C12.5524 10.9999 13.0002 11.4476 13.0002 11.9999C13.0002 12.5522 12.5524 12.9999 12.0002 12.9999ZM15.0002 11.9999C15.0002 12.5522 15.4479 12.9999 16.0002 12.9999C16.5524 12.9999 17.0002 12.5522 17.0002 11.9999C17.0002 11.4476 16.5524 10.9999 16.0002 10.9999C15.4479 10.9999 15.0002 11.4476 15.0002 11.9999Z" fill="black"/>
</svg>
