<svg width="24" height="24" viewBox="0 0 24 24" fill="none" xmlns="http://www.w3.org/2000/svg">
<rect opacity="0.01" width="24" height="24" fill="#A9A9A9"/>
<path d="M11.25 11.8301L3 8.36011V16.0901C3.00888 16.7483 3.3991 17.3414 4 17.6101L11.19 21.0001H11.25V11.8301Z" fill="#A9A9A9"/>
<path d="M12.0002 10.5L20.5102 6.93001C20.367 6.77089 20.1937 6.64173 20.0002 6.55001L12.8002 3.18001C12.2938 2.94032 11.7066 2.94032 11.2002 3.18001L4.00023 6.55001C3.8068 6.64173 3.63346 6.77089 3.49023 6.93001L12.0002 10.5Z" fill="#A9A9A9"/>
<path d="M12.75 11.8301V21.0001H12.8L20 17.6101C20.5977 17.3429 20.9873 16.7546 21 16.1001V8.36011L12.75 11.8301Z" fill="#A9A9A9"/>
</svg>
