<svg width="30" height="32" viewBox="0 0 30 32" fill="none" xmlns="http://www.w3.org/2000/svg">
<path d="M11.6696 27.8C12.5572 28.5468 13.7231 29 15 29C16.2769 29 17.4428 28.5468 18.3304 27.8M22.5523 12.2C22.5523 10.2904 21.7566 8.45909 20.3403 7.10883C18.924 5.75857 17.003 5 15 5C12.997 5 11.076 5.75857 9.6597 7.10883C8.24337 8.45909 7.44768 10.2904 7.44768 12.2C7.44768 15.9082 6.46647 18.4471 5.37037 20.1265C4.44579 21.5431 3.9835 22.2513 4.00045 22.4489C4.01922 22.6677 4.06784 22.7511 4.25276 22.8819C4.41977 23 5.17265 23 6.67841 23H23.3216C24.8273 23 25.5802 23 25.7472 22.8819C25.9322 22.7511 25.9808 22.6677 25.9995 22.4489C26.0165 22.2513 25.5542 21.5431 24.6296 20.1265C23.5335 18.4472 22.5523 15.9082 22.5523 12.2Z" stroke="#231F20" stroke-width="2" stroke-linecap="round" stroke-linejoin="round"/>
<circle cx="23" cy="7" r="7" fill="#4880FF"/>
</svg>
