<svg width="24" height="25" viewBox="0 0 24 25" fill="none" xmlns="http://www.w3.org/2000/svg">
<g clip-path="url(#clip0_2435_2627)">
<path d="M2.57129 15.0715V22.7858C2.57129 23.0131 2.66159 23.2312 2.82234 23.3919C2.98309 23.5527 3.2011 23.643 3.42843 23.643H20.5713C20.7986 23.643 21.0166 23.5527 21.1774 23.3919C21.3381 23.2312 21.4284 23.0131 21.4284 22.7858V15.0715" fill="#A9A9A9"/>
<path d="M2.57129 15.0715V22.7858C2.57129 23.0131 2.66159 23.2312 2.82234 23.3919C2.98309 23.5527 3.2011 23.643 3.42843 23.643H20.5713C20.7986 23.643 21.0166 23.5527 21.1774 23.3919C21.3381 23.2312 21.4284 23.0131 21.4284 22.7858V15.0715" stroke="white" stroke-linecap="round" stroke-linejoin="round"/>
<path d="M13.7144 15.0715V23.643" stroke="white" stroke-linecap="round" stroke-linejoin="round"/>
<path d="M2.57129 17.6428H13.7141" stroke="white" stroke-linecap="round" stroke-linejoin="round"/>
<path d="M0.856934 7.35718L3.42836 1.35718H20.5712L23.1426 7.35718H0.856934Z" fill="#A9A9A9" stroke="white" stroke-linecap="round" stroke-linejoin="round"/>
<path d="M8.14281 7.35718V9.07146C8.14281 9.98078 7.78158 10.8528 7.1386 11.4958C6.49562 12.1388 5.62355 12.5 4.71424 12.5H4.23424C3.32492 12.5 2.45285 12.1388 1.80987 11.4958C1.16689 10.8528 0.805664 9.98078 0.805664 9.07146V7.35718" fill="#A9A9A9"/>
<path d="M8.14281 7.35718V9.07146C8.14281 9.98078 7.78158 10.8528 7.1386 11.4958C6.49562 12.1388 5.62355 12.5 4.71424 12.5H4.23424C3.32492 12.5 2.45285 12.1388 1.80987 11.4958C1.16689 10.8528 0.805664 9.98078 0.805664 9.07146V7.35718" stroke="white" stroke-linecap="round" stroke-linejoin="round"/>
<path d="M15.8569 7.35718V9.07146C15.8569 9.98078 15.4956 10.8528 14.8527 11.4958C14.2097 12.1388 13.3376 12.5 12.4283 12.5H11.5711C10.6618 12.5 9.78977 12.1388 9.14678 11.4958C8.5038 10.8528 8.14258 9.98078 8.14258 9.07146V7.35718" fill="#A9A9A9"/>
<path d="M15.8569 7.35718V9.07146C15.8569 9.98078 15.4956 10.8528 14.8527 11.4958C14.2097 12.1388 13.3376 12.5 12.4283 12.5H11.5711C10.6618 12.5 9.78977 12.1388 9.14678 11.4958C8.5038 10.8528 8.14258 9.98078 8.14258 9.07146V7.35718" stroke="white" stroke-linecap="round" stroke-linejoin="round"/>
<path d="M23.1426 7.35718V9.07146C23.1426 9.98078 22.7814 10.8528 22.1384 11.4958C21.4955 12.1388 20.6234 12.5 19.7141 12.5H19.2855C18.3762 12.5 17.5041 12.1388 16.8611 11.4958C16.2182 10.8528 15.8569 9.98078 15.8569 9.07146V7.35718" fill="#A9A9A9"/>
<path d="M23.1426 7.35718V9.07146C23.1426 9.98078 22.7814 10.8528 22.1384 11.4958C21.4955 12.1388 20.6234 12.5 19.7141 12.5H19.2855C18.3762 12.5 17.5041 12.1388 16.8611 11.4958C16.2182 10.8528 15.8569 9.98078 15.8569 9.07146V7.35718" stroke="white" stroke-linecap="round" stroke-linejoin="round"/>
</g>
<defs>
<clipPath id="clip0_2435_2627">
<rect width="24" height="24" fill="white" transform="translate(0 0.5)"/>
</clipPath>
</defs>
</svg>
