<svg width="33" height="32" viewBox="0 0 33 32" fill="none" xmlns="http://www.w3.org/2000/svg">
<rect opacity="0.01" x="32.5" y="32" width="32" height="32" transform="rotate(180 32.5 32)" fill="black"/>
<path d="M4.81909 9.72313L16.1791 15.8965C16.3791 16.0031 16.6191 16.0031 16.8191 15.8965L28.1791 9.72313C28.391 9.61848 28.5194 9.39687 28.5049 9.16097C28.4903 8.92506 28.3356 8.72093 28.1124 8.64313L16.7524 4.00313C16.5901 3.93646 16.4081 3.93646 16.2458 4.00313L4.88576 8.64313C4.66258 8.72093 4.50787 8.92506 4.49331 9.16097C4.47875 9.39687 4.60717 9.61848 4.81909 9.72313Z" fill="#FEC53D"/>
<path d="M28.1141 14.2119L25.6741 13.1719L16.8208 17.9852C16.6208 18.0919 16.3808 18.0919 16.1808 17.9852L7.32745 13.1719L4.88745 14.2119C4.67684 14.3224 4.54492 14.5407 4.54492 14.7785C4.54492 15.0164 4.67684 15.2346 4.88745 15.3452L16.2474 21.8785C16.4439 21.9987 16.691 21.9987 16.8875 21.8785L28.2474 15.3452C28.448 15.2117 28.5566 14.9769 28.5285 14.7376C28.5003 14.4984 28.3402 14.2952 28.1141 14.2119Z" fill="#FEC53D"/>
<path d="M28.1125 20.1332L26.0325 19.2266L16.8191 24.2399C16.6191 24.3466 16.3791 24.3466 16.1791 24.2399L6.9658 19.2266L4.8858 20.1332C4.66918 20.2455 4.5332 20.4692 4.5332 20.7132C4.5332 20.9572 4.66918 21.1809 4.8858 21.2932L16.2458 27.9599C16.4458 28.0666 16.6858 28.0666 16.8858 27.9599L28.2458 21.2932C28.4524 21.1579 28.5651 20.9175 28.5368 20.6721C28.5086 20.4267 28.3444 20.2182 28.1125 20.1332Z" fill="#FEC53D"/>
</svg>
