<svg width="19" height="20" viewBox="0 0 19 20" fill="none" xmlns="http://www.w3.org/2000/svg">
<path d="M13.306 10.8684C13.6594 10.821 14.0176 10.821 14.371 10.8684M16.2594 11.6484C16.5402 11.8634 16.8027 12.1259 17.0177 12.4068M17.7985 14.2959C17.8452 14.6484 17.8452 15.0059 17.7985 15.3593M11.531 11.8209C9.9177 13.3493 9.9777 15.7359 11.4535 17.2118C12.9452 18.7034 15.3727 18.7518 16.896 17.0818M1.48353 2.05428C3.01353 0.407616 14.5102 4.44012 14.5002 5.91262C14.4894 7.58178 10.0102 8.09595 8.76853 8.44345C8.02187 8.65262 7.8227 8.86845 7.6502 9.65095C6.8702 13.1959 6.47937 14.9593 5.58687 14.9993C4.1652 15.0618 -0.00813168 3.66012 1.48353 2.05428Z" stroke="#3E3A3B" stroke-width="1.5" stroke-linecap="round" stroke-linejoin="round"/>
</svg>
