<svg width="24" height="24" viewBox="0 0 24 24" fill="none" xmlns="http://www.w3.org/2000/svg">
<rect opacity="0.01" width="24" height="24" fill="#A9A9A9"/>
<path fill-rule="evenodd" clip-rule="evenodd" d="M21.1699 10.33H14.4999C14.0415 10.33 13.6699 9.9584 13.6699 9.5V2.83C13.6699 2.3716 14.0415 2 14.4999 2C18.6421 2 21.9999 5.35786 21.9999 9.5C21.9999 9.9584 21.6283 10.33 21.1699 10.33ZM20.2699 8.67C19.9014 6.1098 17.8901 4.09848 15.3299 3.73V8.67H20.2699Z" fill="#A9A9A9"/>
<path d="M21.0799 12.0001H12.9299C12.6885 12.0001 12.4571 11.9042 12.2864 11.7336C12.1157 11.5629 12.0199 11.3314 12.0199 11.0901V2.92009C12.0214 2.65773 11.9109 2.40719 11.7161 2.23147C11.5212 2.05575 11.2607 1.97156 10.9999 2.00009C5.77981 2.55437 1.87691 7.0506 2.06198 12.2967C2.24705 17.5429 6.45708 21.7529 11.7032 21.938C16.9493 22.123 21.4456 18.2201 21.9999 13.0001C22.0223 12.7425 21.9354 12.4874 21.7604 12.2972C21.5854 12.1069 21.3384 11.9991 21.0799 12.0001Z" fill="#A9A9A9"/>
</svg>
