<svg width="24" height="25" viewBox="0 0 24 25" fill="none" xmlns="http://www.w3.org/2000/svg">
<rect opacity="0.01" x="24" y="24.5" width="24" height="24" transform="rotate(180 24 24.5)" fill="#A9A9A9"/>
<path d="M12 14C12.8284 14 13.5 13.3284 13.5 12.5C13.5 11.6716 12.8284 11 12 11C11.1716 11 10.5 11.6716 10.5 12.5C10.5 13.3284 11.1716 14 12 14Z" fill="#A9A9A9"/>
<path fill-rule="evenodd" clip-rule="evenodd" d="M19.23 9.87H20.32C21.2495 9.8755 22 10.6305 22 11.56V13.5C21.9952 14.401 21.2805 15.1378 20.38 15.17H19.29C19.1589 15.1811 19.046 15.2667 19 15.39C18.927 15.5025 18.927 15.6475 19 15.76L19.73 16.49C20.0457 16.8035 20.2233 17.2301 20.2233 17.675C20.2233 18.1199 20.0457 18.5465 19.73 18.86L18.39 20.2C18.0801 20.5189 17.6546 20.6991 17.21 20.7C16.7635 20.6941 16.3367 20.5148 16.02 20.2L15.26 19.43C15.1475 19.357 15.0025 19.357 14.89 19.43C14.74 19.49 14.63 19.59 14.63 19.73V20.82C14.6245 21.7495 13.8695 22.5 12.94 22.5H11.05C10.1451 22.5006 9.40232 21.7843 9.37 20.88V19.79C9.35895 19.6589 9.27326 19.546 9.15 19.5C9.02506 19.4199 8.86494 19.4199 8.74 19.5L7.97 20.24C7.65648 20.5557 7.22994 20.7333 6.785 20.7333C6.34006 20.7333 5.91352 20.5557 5.6 20.24L4.26 18.88C3.93962 18.567 3.75931 18.1379 3.76 17.69C3.76586 17.2435 3.94517 16.8167 4.26 16.5L5.07 15.76C5.14298 15.6475 5.14298 15.5025 5.07 15.39C5.01 15.24 4.91 15.13 4.77 15.13H3.68C2.75055 15.1245 1.99998 14.3695 2 13.44V11.55C2 10.6222 2.75216 9.87 3.68 9.87H4.71C4.84109 9.85895 4.95403 9.77326 5 9.65C5.08005 9.52506 5.08005 9.36494 5 9.24L4.26 8.5C3.93494 8.18539 3.75142 7.75237 3.75142 7.3C3.75142 6.84763 3.93494 6.41461 4.26 6.1L5.63 4.76C5.9399 4.44115 6.36536 4.26087 6.81 4.26C7.25653 4.26586 7.68328 4.44517 8 4.76L8.74 5.57C8.85254 5.64298 8.99746 5.64298 9.11 5.57C9.26 5.51 9.37 5.41 9.37 5.27V4.18C9.3755 3.25055 10.1305 2.49998 11.06 2.5H13C13.9083 2.52704 14.6304 3.27134 14.63 4.18V5.21C14.6411 5.34109 14.7267 5.45403 14.85 5.5C14.9749 5.58005 15.1351 5.58005 15.26 5.5L16.03 4.76C16.3435 4.44428 16.7701 4.26672 17.215 4.26672C17.6599 4.26672 18.0865 4.44428 18.4 4.76L19.74 6.13C20.0594 6.44362 20.2396 6.87235 20.24 7.32C20.2414 7.7651 20.0608 8.19143 19.74 8.5L18.93 9.24C18.857 9.35254 18.857 9.49746 18.93 9.61C18.99 9.76 19.09 9.87 19.23 9.87ZM8.76642 13.8394C9.30816 15.1473 10.5844 16 12 16C13.933 16 15.5 14.433 15.5 12.5C15.5 11.0844 14.6473 9.80816 13.3394 9.26642C12.0315 8.72469 10.5261 9.02413 9.52513 10.0251C8.52413 11.0261 8.22469 12.5315 8.76642 13.8394Z" fill="#A9A9A9"/>
</svg>
